<?xml version="1.0" encoding="UTF-8" standalone="no"?>
<svg
   xmlns:dc="http://purl.org/dc/elements/1.1/"
   xmlns:cc="http://creativecommons.org/ns#"
   xmlns:rdf="http://www.w3.org/1999/02/22-rdf-syntax-ns#"
   xmlns:svg="http://www.w3.org/2000/svg"
   xmlns="http://www.w3.org/2000/svg"
   width="1000"
   height="300"
   viewBox="0 0 1000 299.99998"
   id="svg2"
   version="1.1">
  <defs
     id="defs4" />
  <metadata
     id="metadata7">
    <rdf:RDF>
      <cc:Work
         rdf:about="">
        <dc:format>image/svg+xml</dc:format>
        <dc:type
           rdf:resource="http://purl.org/dc/dcmitype/StillImage" />
        <dc:title></dc:title>
      </cc:Work>
    </rdf:RDF>
  </metadata>
  <g
     id="g4173">
    <text
       id="text4169"
       y="210.75952"
       x="17.702137"
       style="font-style:normal;font-weight:normal;font-size:40px;line-height:125%;font-family:sans-serif;letter-spacing:0px;word-spacing:0px;fill:#ffdd55;fill-opacity:1;stroke:none;stroke-width:1px;stroke-linecap:butt;stroke-linejoin:miter;stroke-opacity:1;"
       xml:space="preserve"><tspan
         style="font-style:normal;font-variant:normal;font-weight:bold;font-stretch:normal;font-size:180px;font-family:Purisa;-inkscape-font-specification:'Purisa Bold';fill:#ffdd55;"
         y="210.75952"
         x="17.702137"
         id="tspan4171">EXAMPLE</tspan></text>
    <text
       xml:space="preserve"
       style="font-style:normal;font-weight:normal;font-size:40px;line-height:125%;font-family:sans-serif;letter-spacing:0px;word-spacing:0px;fill:#0044aa;fill-opacity:1;stroke:none;stroke-width:1px;stroke-linecap:butt;stroke-linejoin:miter;stroke-opacity:1"
       x="9.702136"
       y="200.75952"
       id="text4141"><tspan
         id="tspan4143"
         x="9.702136"
         y="200.75952"
         style="font-style:normal;font-variant:normal;font-weight:bold;font-stretch:normal;font-size:180px;font-family:Purisa;-inkscape-font-specification:'Purisa Bold';fill:#0044aa">EXAMPLE</tspan></text>
    <text
       xml:space="preserve"
       style="font-style:normal;font-weight:normal;font-size:40px;line-height:125%;font-family:sans-serif;letter-spacing:0px;word-spacing:0px;fill:#550000;fill-opacity:1;stroke:none;stroke-width:1px;stroke-linecap:butt;stroke-linejoin:miter;stroke-opacity:1"
       x="930.27332"
       y="68.147942"
       id="text4145"><tspan
         id="tspan4147"
         x="930.27332"
         y="68.147942">SP</tspan></text>
    <path
       style="fill:#008000;stroke:none;stroke-width:1;stroke-miterlimit:4;stroke-dasharray:none;stroke-dashoffset:0"
       id="path4163"
       d="m 81.380737,268.28945 c 10.5998,-2.39691 21.413923,-3.59371 32.192413,-4.90793 33.98285,-2.33129 68.03787,-3.6346 102.0864,-4.55954 42.48757,-1.50657 84.94627,-3.74573 127.3842,-6.27665 40.82023,-2.20815 81.64707,-4.28321 122.47674,-6.31012 42.32218,-2.37399 84.7047,-3.16648 127.05582,-4.84973 37.79258,-1.4163 75.444,-4.892 113.0486,-8.77076 27.60798,-3.07399 55.21076,-6.00155 82.9668,-7.28039 23.50429,-0.921 47.03166,-0.82339 70.54922,-0.97903 16.72313,-0.42114 33.43953,-1.06097 50.1638,-1.44576 13.41616,-0.26245 26.83587,-0.23014 40.25398,-0.2724 10.55047,-0.14195 21.08376,0.61493 31.62119,1.02519 4.76946,0.14495 2.46925,0.0845 6.90054,0.18529 0,0 -18.26207,13.17395 -18.26207,13.17395 l 0,0 c -4.3352,-0.1961 -2.08312,-0.0896 -6.75614,-0.32161 -10.38767,-0.54306 -20.77469,-1.36563 -31.18406,-1.21369 -13.39171,-0.008 -26.78329,0.0547 -40.17356,0.26365 -16.53144,0.27164 -33.05685,0.80813 -49.58982,0.97903 -23.42806,-0.0951 -46.8634,0.01 -70.27761,0.89996 -27.42622,1.33698 -54.7488,3.8658 -82.05432,6.744 -37.46635,3.79068 -74.98733,6.95821 -112.6326,8.30945 -42.32396,1.5139 -84.66955,2.47224 -126.95992,4.81436 -40.86764,2.26726 -81.75835,4.11119 -122.62343,6.43121 -42.39014,2.40489 -84.8017,4.46563 -127.22873,6.09901 -34.66483,1.2243 -69.3649,2.64378 -103.886337,6.13675 -11.199392,1.55678 -22.371759,3.25375 -33.386721,5.83407 0,0 18.315615,-13.70831 18.315615,-13.70831 z" />
  </g>
</svg>
